<svg width="18" height="20" viewBox="0 0 18 20" fill="none" xmlns="http://www.w3.org/2000/svg">
<path d="M8.85821 9.63408C10.1818 9.63408 11.3277 9.15938 12.2643 8.22279C13.2005 7.28636 13.6754 6.14058 13.6754 4.81689C13.6754 3.49365 13.2007 2.34771 12.2641 1.41098C11.3275 0.4747 10.1816 0 8.85821 0C7.53451 0 6.38873 0.4747 5.4523 1.41113C4.51587 2.34756 4.04102 3.49349 4.04102 4.81689C4.04102 6.14058 4.51587 7.28652 5.4523 8.22295C6.38903 9.15922 7.53497 9.63408 8.85821 9.63408V9.63408ZM6.28115 2.23983C6.99969 1.5213 7.84258 1.17203 8.85821 1.17203C9.87368 1.17203 10.7167 1.5213 11.4354 2.23983C12.1539 2.95852 12.5034 3.80157 12.5034 4.81689C12.5034 5.83251 12.1539 6.6754 11.4354 7.39409C10.7167 8.11278 9.87368 8.46205 8.85821 8.46205C7.84289 8.46205 6.99999 8.11262 6.28115 7.39409C5.56247 6.67555 5.21304 5.83251 5.21304 4.81689C5.21304 3.80157 5.56247 2.95852 6.28115 2.23983Z" fill="black"/>
<path d="M17.2863 15.3784C17.2592 14.9887 17.2046 14.5636 17.1242 14.1146C17.043 13.6624 16.9385 13.2348 16.8134 12.844C16.684 12.4401 16.5084 12.0413 16.2909 11.6591C16.0656 11.2623 15.8007 10.9169 15.5034 10.6326C15.1926 10.3352 14.812 10.0961 14.372 9.92169C13.9334 9.7482 13.4475 9.66031 12.9276 9.66031C12.7234 9.66031 12.526 9.74408 12.1447 9.99234C11.91 10.1454 11.6355 10.3224 11.3291 10.5182C11.0671 10.6851 10.7122 10.8415 10.2738 10.9831C9.84608 11.1215 9.41182 11.1917 8.98305 11.1917C8.55458 11.1917 8.12032 11.1215 7.69231 10.9831C7.25438 10.8416 6.89931 10.6852 6.63778 10.5183C6.33428 10.3244 6.05962 10.1474 5.82143 9.99219C5.44042 9.74393 5.24297 9.66016 5.03881 9.66016C4.51879 9.66016 4.03295 9.7482 3.59457 9.92184C3.15481 10.0959 2.77411 10.3351 2.46298 10.6327C2.16574 10.9172 1.90085 11.2625 1.67563 11.6591C1.45849 12.0413 1.28271 12.44 1.15332 12.8442C1.02835 13.235 0.923828 13.6624 0.842651 14.1146C0.762085 14.5629 0.707611 14.9882 0.680603 15.3788C0.654053 15.7608 0.640625 16.1583 0.640625 16.5599C0.640625 17.6039 0.972503 18.449 1.62695 19.0724C2.27331 19.6875 3.12841 19.9993 4.1686 19.9993H13.7987C14.8386 19.9993 15.6937 19.6875 16.3402 19.0724C16.9948 18.4495 17.3267 17.604 17.3267 16.5597C17.3265 16.1567 17.313 15.7592 17.2863 15.3784V15.3784ZM15.5321 18.2232C15.105 18.6297 14.538 18.8273 13.7986 18.8273H4.1686C3.42901 18.8273 2.862 18.6297 2.43506 18.2234C2.0162 17.8247 1.81265 17.2804 1.81265 16.5599C1.81265 16.1851 1.82501 15.8151 1.84973 15.4599C1.87384 15.1113 1.92312 14.7285 1.99621 14.3217C2.06839 13.9199 2.16025 13.5429 2.2695 13.2016C2.37433 12.8743 2.5173 12.5502 2.69461 12.238C2.86383 11.9404 3.05853 11.6851 3.27337 11.4795C3.47433 11.287 3.72763 11.1296 4.02609 11.0115C4.30212 10.9022 4.61233 10.8424 4.94909 10.8334C4.99013 10.8552 5.06322 10.8969 5.18163 10.9741C5.42257 11.1311 5.70028 11.3102 6.00728 11.5063C6.35335 11.727 6.79921 11.9262 7.3319 12.0982C7.87648 12.2743 8.4319 12.3637 8.9832 12.3637C9.5345 12.3637 10.0901 12.2743 10.6344 12.0984C11.1675 11.9261 11.6132 11.727 11.9597 11.506C12.2739 11.3052 12.5438 11.1313 12.7848 10.9741C12.9032 10.897 12.9763 10.8552 13.0173 10.8334C13.3542 10.8424 13.6644 10.9022 13.9406 11.0115C14.2389 11.1296 14.4922 11.2872 14.6932 11.4795C14.908 11.685 15.1027 11.9403 15.2719 12.2381C15.4494 12.5502 15.5925 12.8744 15.6972 13.2014C15.8066 13.5432 15.8986 13.9201 15.9706 14.3216C16.0436 14.7291 16.093 15.1121 16.1171 15.46V15.4603C16.142 15.8142 16.1545 16.184 16.1547 16.5599C16.1545 17.2805 15.951 17.8247 15.5321 18.2232V18.2232Z" fill="black"/>
</svg>
