<svg width="213" height="65" viewBox="0 0 213 65" fill="none" xmlns="http://www.w3.org/2000/svg">
<path d="M0 32.7282V31.8524H1.21388C2.55867 31.8524 3.45717 31.5068 3.9094 30.8156C4.37353 30.1245 4.6056 28.8732 4.6056 27.0619V6.39872C4.6056 4.26567 4.30213 2.93697 3.69519 2.41265C3.10015 1.87641 2.27305 1.60828 1.21388 1.60828H0V0.732422H13.0135C16.6432 0.732422 19.7731 1.08992 22.4032 1.80491C25.0452 2.50798 27.3361 4.17033 29.2759 6.79196C31.2157 9.4136 32.1856 12.6728 32.1856 16.5695C32.1856 19.5843 31.5251 22.337 30.2042 24.8276C28.8951 27.3181 26.9314 29.2605 24.3133 30.6548C21.707 32.0371 18.3629 32.7282 14.2809 32.7282H0ZM9.12194 3.21701V30.4224C11.1213 30.8633 12.7933 31.0838 14.1381 31.0838C18.351 31.0838 21.5166 29.6538 23.6349 26.7938C25.7533 23.9339 26.8124 20.6032 26.8124 16.8018C26.8124 12.5119 25.6462 9.06206 23.3136 6.45234C20.9811 3.83071 17.8631 2.5199 13.9596 2.5199C12.5434 2.5199 10.9309 2.75227 9.12194 3.21701Z" fill="#28282C"/>
<path d="M68.3342 32.7287H55.7313V31.8528C57.8973 31.7456 58.9802 31.0961 58.9802 29.9045C58.9802 29.2133 58.6649 28.117 58.0341 26.6155L56.1062 22.0217H43.7353L41.5575 27.0624C41.0339 28.2779 40.772 29.2073 40.772 29.8508C40.772 31.0067 42.0038 31.6741 44.4672 31.8528V32.7287H34.3992V31.8528C35.6131 31.6383 36.5116 31.3106 37.0947 30.8697C37.6897 30.4169 38.5407 28.9035 39.6474 26.3295L50.8937 0H51.7148L62.8361 26.6155C63.6096 28.4745 64.3534 29.7913 65.0675 30.5658C65.7815 31.3285 66.8704 31.7575 68.3342 31.8528V32.7287ZM55.4457 20.27L50.0189 7.34652L44.4672 20.27H55.4457Z" fill="#28282C"/>
<path d="M103.037 1.60828H101.912C100.544 1.60828 99.6332 1.94195 99.181 2.60927C98.7407 3.2766 98.5205 4.49804 98.5205 6.2736V33.2466H97.6637L76.5993 7.48908V27.1871C76.5993 29.2844 76.8849 30.5892 77.4562 31.1016C78.0393 31.6021 78.8843 31.8524 79.991 31.8524H81.1156V32.7282H69.9944V31.8524H71.1011C72.0889 31.8524 72.9041 31.6021 73.5468 31.1016C74.2013 30.6011 74.5286 29.2963 74.5286 27.1871V4.93299C73.4575 3.68176 72.4459 2.81781 71.4939 2.34115C70.5537 1.85257 69.4648 1.60828 68.2271 1.60828V0.732422H76.9028L96.4319 24.7382V6.2736C96.4319 4.18821 96.1344 2.88931 95.5394 2.3769C94.9562 1.86449 94.1172 1.60828 93.0224 1.60828H91.9156V0.732422H103.037V1.60828Z" fill="#28282C"/>
<path d="M118.603 32.7282H104.911V31.8524H106.054C107.517 31.8524 108.452 31.5068 108.856 30.8156C109.273 30.1245 109.481 28.8732 109.481 27.0619V6.39872C109.481 4.38483 109.219 3.08593 108.696 2.50202C108.172 1.9062 107.291 1.60828 106.054 1.60828H104.911V0.732422H118.603V1.60828H117.461C116.52 1.60828 115.711 1.85853 115.033 2.35902C114.354 2.85952 114.015 4.20608 114.015 6.39872V27.0619C114.015 28.9447 114.152 30.0947 114.426 30.5118C114.7 30.9169 115.122 31.2446 115.693 31.4949C116.276 31.7332 116.866 31.8524 117.461 31.8524H118.603V32.7282Z" fill="#28282C"/>
<path d="M148.218 24.7025L145.469 32.7282H120.834V31.8524H121.977C123.096 31.8524 123.947 31.5664 124.53 30.9944C125.125 30.4224 125.422 29.1235 125.422 27.0977V6.30935C125.422 4.14054 125.137 2.81781 124.565 2.34115C123.994 1.85257 123.131 1.60828 121.977 1.60828H120.834V0.732422H145.469L145.826 7.73933H144.898C144.481 5.57052 143.88 4.15246 143.095 3.48513C142.321 2.81781 140.858 2.48415 138.703 2.48415H129.939V15.1216H136.954C138.596 15.1216 139.816 14.8535 140.614 14.3172C141.423 13.781 141.881 12.5 141.988 10.4742H142.845V21.6101H141.988C141.786 19.4532 141.244 18.1246 140.364 17.6241C139.495 17.1117 138.358 16.8555 136.954 16.8555H129.939V27.4016C129.939 28.915 130.093 29.8921 130.403 30.333C130.712 30.762 131.438 30.9765 132.581 30.9765H137.989C140.227 30.9765 141.976 30.619 143.238 29.904C144.511 29.189 145.862 27.4552 147.29 24.7025H148.218Z" fill="#28282C"/>
<path d="M177.708 24.0411L174.977 32.7282H150.235V31.8524H151.431C152.776 31.8524 153.681 31.5128 154.145 30.8335C154.609 30.1424 154.841 28.8792 154.841 27.0441V6.39872C154.841 4.26567 154.537 2.93697 153.93 2.41265C153.335 1.87641 152.502 1.60828 151.431 1.60828H150.235V0.732422H164.713V1.60828C163.38 1.60828 162.315 1.73341 161.517 1.98365C160.732 2.2339 160.172 2.61523 159.839 3.12764C159.518 3.62813 159.357 4.89724 159.357 6.93496V27.0441C159.357 28.6528 159.589 29.6657 160.053 30.0828C160.518 30.4879 161.928 30.6905 164.284 30.6905H166.623C168.515 30.6905 170.002 30.5773 171.085 30.3509C172.168 30.1245 173.186 29.5465 174.138 28.617C175.09 27.6756 176.024 26.0967 176.941 23.8802L177.708 24.0411Z" fill="#28282C"/>
<path d="M213 32.7287H200.397V31.8528C202.563 31.7456 203.646 31.0961 203.646 29.9045C203.646 29.2133 203.331 28.117 202.7 26.6155L200.772 22.0217H188.401L186.223 27.0624C185.7 28.2779 185.438 29.2073 185.438 29.8508C185.438 31.0067 186.67 31.6741 189.133 31.8528V32.7287H179.065V31.8528C180.279 31.6383 181.177 31.3106 181.76 30.8697C182.355 30.4169 183.206 28.9035 184.313 26.3295L195.559 0H196.381L207.502 26.6155C208.275 28.4745 209.019 29.7913 209.733 30.5658C210.447 31.3285 211.536 31.7575 213 31.8528V32.7287ZM200.111 20.27L194.685 7.34652L189.133 20.27H200.111Z" fill="#28282C"/>
<path d="M1.59093 64.4908V63.8826H2.43391C3.36779 63.8826 3.99175 63.6426 4.3058 63.1626C4.62811 62.6826 4.78927 61.8137 4.78927 60.5559V46.2064C4.78927 44.7251 4.57853 43.8024 4.15704 43.4383C3.74382 43.0659 3.16944 42.8797 2.43391 42.8797H1.59093V42.2715H10.6281C13.1487 42.2715 15.3223 42.5197 17.1487 43.0163C18.9834 43.5045 20.5743 44.6589 21.9214 46.4795C23.2685 48.3001 23.9421 50.5634 23.9421 53.2694C23.9421 55.3631 23.4834 57.2747 22.566 59.0042C21.657 60.7338 20.2933 62.0827 18.4752 63.0509C16.6652 64.0108 14.3429 64.4908 11.5082 64.4908H1.59093ZM7.92562 43.9969V62.8895C9.31404 63.1957 10.4752 63.3488 11.4091 63.3488C14.3347 63.3488 16.533 62.3558 18.0041 60.3697C19.4751 58.3836 20.2107 56.0706 20.2107 53.4308C20.2107 50.4517 19.4008 48.056 17.7809 46.2437C16.1611 44.4231 13.9958 43.5128 11.2851 43.5128C10.3016 43.5128 9.18181 43.6742 7.92562 43.9969Z" fill="#28282C"/>
<path d="M39.4167 64.4908H29.9085V63.8826H30.7019C31.7184 63.8826 32.3672 63.6426 32.6482 63.1626C32.9374 62.6826 33.0821 61.8137 33.0821 60.5559V46.2064C33.0821 44.8079 32.9002 43.9059 32.5366 43.5004C32.173 43.0866 31.5614 42.8797 30.7019 42.8797H29.9085V42.2715H39.4167V42.8797H38.6234C37.9705 42.8797 37.4085 43.0535 36.9374 43.4011C36.4663 43.7486 36.2308 44.6837 36.2308 46.2064V60.5559C36.2308 61.8634 36.3259 62.6619 36.5159 62.9516C36.706 63.2329 36.9994 63.4605 37.3961 63.6343C37.8011 63.7998 38.2101 63.8826 38.6234 63.8826H39.4167V64.4908Z" fill="#28282C"/>
<path d="M85.5272 64.4908H76.1057V63.8826H76.8867C77.5809 63.8826 78.147 63.7088 78.585 63.3612C79.0231 63.0136 79.2421 62.1075 79.2421 60.6428V45.7968L70.6884 64.4908H70.1429L61.5645 45.7968V60.6428C61.5645 62.1075 61.7669 63.0136 62.1719 63.3612C62.5768 63.7088 63.1636 63.8826 63.9322 63.8826H64.7132V64.4908H56.9901V63.8826H57.7711C58.4488 63.8826 59.0107 63.7088 59.457 63.3612C59.9033 63.0136 60.1264 62.1075 60.1264 60.6428V46.1195C60.1264 44.9692 59.9405 44.1417 59.5686 43.6369C59.1967 43.1321 58.3372 42.8797 56.9901 42.8797V42.2715H63.2752L71.3206 59.6621L79.2421 42.2715H85.5272V42.8797H84.7586C84.0726 42.8797 83.5065 43.0576 83.0602 43.4135C82.6139 43.761 82.3908 44.6631 82.3908 46.1195V60.6428C82.3908 62.0909 82.5933 62.993 82.9982 63.3488C83.4115 63.7046 83.9982 63.8826 84.7586 63.8826H85.5272V64.4908Z" fill="#28282C"/>
<path d="M113.969 64.49H105.217V63.8817C106.721 63.8073 107.473 63.3562 107.473 62.5287C107.473 62.0487 107.254 61.2874 106.816 60.2447L105.477 57.0546H96.8862L95.3738 60.555C95.0101 61.3991 94.8283 62.0446 94.8283 62.4915C94.8283 63.2942 95.6837 63.7576 97.3944 63.8817V64.49H90.4027V63.8817C91.2457 63.7328 91.8696 63.5052 92.2746 63.199C92.6878 62.8845 93.2787 61.8336 94.0473 60.0461L101.857 41.7617H102.427L110.151 60.2447C110.688 61.5357 111.204 62.4501 111.7 62.988C112.196 63.5176 112.952 63.8155 113.969 63.8817V64.49ZM105.018 55.8381L101.25 46.8635L97.3944 55.8381H105.018Z" fill="#28282C"/>
<path d="M140.848 64.4908H134.923L127.41 54.1011C126.857 54.1259 126.406 54.1384 126.059 54.1384C125.877 54.1384 125.555 54.1259 125.092 54.1011V60.5559C125.092 62.0289 125.295 62.9516 125.7 63.324C126.113 63.6964 126.683 63.8826 127.41 63.8826H128.278V64.4908H118.77V63.8826H119.613C120.53 63.8826 121.15 63.6467 121.472 63.175C121.803 62.695 121.968 61.822 121.968 60.5559V46.2064C121.968 44.7334 121.762 43.8107 121.348 43.4383C120.935 43.0659 120.357 42.8797 119.613 42.8797H118.77V42.2715H126.852C128.836 42.2715 130.427 42.3998 131.625 42.6563C132.832 42.9128 133.877 43.5335 134.762 44.5182C135.646 45.503 136.088 46.6616 136.088 47.9939C136.088 50.973 134.266 52.8681 130.621 53.6791L135.208 60.0469C136.348 61.6275 137.315 62.6371 138.109 63.0757C138.91 63.5143 139.824 63.7833 140.848 63.8826V64.4908ZM125.092 43.8231V53.0708H126.01C127.968 53.0708 129.522 52.6488 130.671 51.8047C131.828 50.9523 132.406 49.7524 132.406 48.2049C132.406 46.6078 131.923 45.4285 130.956 44.6672C129.997 43.8976 128.898 43.5128 127.658 43.5128C126.609 43.5128 125.753 43.6162 125.092 43.8231Z" fill="#28282C"/>
<path d="M154.711 64.4908H145.203V63.8826H145.997C147.013 63.8826 147.662 63.6426 147.943 63.1626C148.232 62.6826 148.377 61.8137 148.377 60.5559V46.2064C148.377 44.8079 148.195 43.9059 147.831 43.5004C147.468 43.0866 146.856 42.8797 145.997 42.8797H145.203V42.2715H154.711V42.8797H153.918C153.265 42.8797 152.703 43.0535 152.232 43.4011C151.761 43.7486 151.525 44.6837 151.525 46.2064V60.5559C151.525 61.8634 151.62 62.6619 151.811 62.9516C152.001 63.2329 152.294 63.4605 152.691 63.6343C153.096 63.7998 153.505 63.8826 153.918 63.8826H154.711V64.4908Z" fill="#28282C"/>
<path d="M183.165 42.8797H182.384C181.434 42.8797 180.802 43.1114 180.488 43.5749C180.182 44.0383 180.029 44.8865 180.029 46.1195V64.8508H179.434L164.806 46.9636V60.6428C164.806 62.0992 165.004 63.0054 165.401 63.3612C165.806 63.7088 166.393 63.8826 167.161 63.8826H167.942V64.4908H160.219V63.8826H160.988C161.674 63.8826 162.24 63.7088 162.686 63.3612C163.141 63.0136 163.368 62.1075 163.368 60.6428V45.1885C162.624 44.3196 161.922 43.7197 161.26 43.3887C160.608 43.0494 159.851 42.8797 158.992 42.8797V42.2715H165.017L178.579 58.9422V46.1195C178.579 44.6713 178.372 43.7693 177.959 43.4135C177.554 43.0576 176.971 42.8797 176.211 42.8797H175.442V42.2715H183.165V42.8797Z" fill="#28282C"/>
<path d="M210.404 53.2438C210.404 56.5456 209.371 59.3303 207.305 61.5977C205.239 63.8652 202.636 64.9989 199.495 64.9989C197.363 64.9989 195.495 64.4982 193.892 63.4969C192.289 62.4956 191.016 61.126 190.074 59.3882C189.14 57.6421 188.673 55.6105 188.673 53.2934C188.673 49.9502 189.748 47.1945 191.896 45.0263C194.053 42.8499 196.673 41.7617 199.756 41.7617C201.789 41.7617 203.59 42.2665 205.161 43.2761C206.731 44.2857 207.995 45.6553 208.954 47.3848C209.921 49.1061 210.404 51.0591 210.404 53.2438ZM206.661 53.6906C206.661 46.5325 204.256 42.9534 199.446 42.9534C198.123 42.9534 196.942 43.3051 195.9 44.0085C194.867 44.7036 194.028 45.8249 193.384 47.3724C192.739 48.9199 192.417 50.8729 192.417 53.2314C192.417 56.4587 193.033 59.0324 194.264 60.9523C195.504 62.8721 197.235 63.8321 199.458 63.8321C201.805 63.8321 203.59 62.9301 204.814 61.126C206.045 59.3137 206.661 56.8353 206.661 53.6906Z" fill="#28282C"/>
</svg>
