<svg width="148" height="72" viewBox="0 0 148 72" fill="none" xmlns="http://www.w3.org/2000/svg">
<g clip-path="url(#clip0)">
<path fill-rule="evenodd" clip-rule="evenodd" d="M10.6704 69.6602C10.9412 70.2763 11.1773 70.722 11.387 71.0016C11.5924 71.2814 11.9202 71.4211 12.3746 71.4211V71.762H7.81707V71.4211C8.2803 71.395 8.60794 71.3425 8.79146 71.2551C8.97946 71.1721 9.07116 71.0279 9.07116 70.8224C9.07116 70.6302 8.9225 70.1626 8.62981 69.4243L7.99623 67.908H3.27705C3.26827 67.9342 3.111 68.3362 2.8008 69.114C2.49063 69.8917 2.33766 70.4073 2.33766 70.6607C2.33766 71.1677 2.73969 71.4211 3.53928 71.4211V71.7619H1.52588e-05V71.4211C0.493683 71.373 0.882656 71.1196 1.16659 70.6739C1.45071 70.2238 1.83953 69.433 2.33766 68.2969L5.95567 59.6758H6.31833L10.6704 69.6602ZM3.59167 67.1739H7.76031L5.66724 62.2451L3.59167 67.1739ZM145.558 69.6602C145.829 70.2763 146.065 70.722 146.275 71.0016C146.48 71.2814 146.808 71.4211 147.262 71.4211V71.762H142.705V71.4211C143.168 71.395 143.496 71.3425 143.679 71.2551C143.867 71.1721 143.959 71.0279 143.959 70.8224C143.959 70.6302 143.81 70.1626 143.518 69.4243L142.884 67.908H138.165C138.156 67.9342 137.999 68.3362 137.689 69.1139C137.378 69.8917 137.225 70.4073 137.225 70.6607C137.225 71.1677 137.627 71.4211 138.427 71.4211V71.7619H134.888V71.4211C135.381 71.373 135.77 71.1196 136.054 70.6739C136.338 70.2238 136.727 69.433 137.225 68.2969L140.843 59.6758H141.206L145.558 69.6602ZM138.479 67.1739H142.648L140.555 62.2451L138.479 67.1739ZM23.5954 71.9979H23.3072L15.3633 62.1665V70.32C15.3633 71.0541 15.94 71.4211 17.0936 71.4211V71.762H12.8507V71.4211C14.0174 71.4211 14.603 71.0541 14.603 70.32V61.2488L14.4501 61.0653C14.1355 60.7201 13.8952 60.5017 13.7291 60.4099C13.5631 60.3181 13.2703 60.2658 12.8508 60.2526V59.938H15.9139L22.7829 68.5111V61.3538C22.7829 60.6196 22.2061 60.2526 21.0525 60.2526V59.938H25.3259V60.2526C24.1724 60.2526 23.5955 60.6196 23.5955 61.3538L23.5954 71.9979ZM36.7041 63.4555H36.3064C35.5592 61.4061 34.2353 60.3837 32.3258 60.3837C31.3733 60.3837 30.578 60.6284 29.9401 61.1222C29.3065 61.6158 28.8345 62.2844 28.5331 63.1365C28.2315 63.9842 28.0786 64.9455 28.0786 66.0204C28.0786 67.4842 28.4763 68.7252 29.2671 69.7389C30.0623 70.7571 31.1766 71.2639 32.6142 71.2639C33.4445 71.2639 34.1086 71.1327 34.6067 70.875C34.8601 70.7526 35.0131 70.6478 35.0611 70.5604C35.1092 70.4686 35.131 70.2851 35.131 70.0098V67.3356C35.131 66.9249 35.1004 66.6146 35.0436 66.4049C34.9825 66.1908 34.8426 66.0292 34.6198 65.9111C34.3969 65.7932 34.0516 65.732 33.5842 65.732V65.3956H38.1416V65.732C37.5954 65.746 37.2502 65.8719 37.1061 66.1034C36.9618 66.3394 36.8876 66.7501 36.8876 67.3356V70.7396C36.3064 71.0585 35.5811 71.3469 34.7071 71.609C33.8289 71.8669 33.0467 71.9979 32.3519 71.9979C31.2946 71.9979 30.2852 71.7706 29.3151 71.3206C28.3494 70.8662 27.5585 70.1759 26.9468 69.2452C26.3395 68.3145 26.0336 67.1871 26.0336 65.8587C26.0336 64.6965 26.2958 63.6433 26.8158 62.6995C27.3402 61.7601 28.0698 61.0216 29.0048 60.4841C29.9443 59.9467 30.9887 59.6758 32.1379 59.6758C32.7146 59.6758 33.37 59.7719 34.0999 59.9642C34.8295 60.1565 35.2664 60.2569 35.4151 60.2569C35.7821 60.2569 36.0355 60.0604 36.1798 59.6758H36.5424L36.7041 63.4555ZM38.6441 71.762V71.4255C39.6929 71.4255 40.2172 71.0585 40.2172 70.3243V61.3537C40.2172 60.6195 39.6929 60.2525 38.6441 60.2525V59.938H48.1654V62.4811H47.7678C47.5012 61.2576 46.8239 60.6459 45.7271 60.6459H42.8389C42.3146 60.6459 42.0524 60.8818 42.0524 61.3537V65.1814H44.5648C45.2553 65.1814 45.8015 65.0591 46.1991 64.8188C46.5967 64.574 46.7978 64.1284 46.7978 63.4774H47.1648V67.6677H46.7978C46.7978 66.501 46.0549 65.9156 44.5648 65.9156H42.0524V70.3243C42.0524 70.7919 42.201 71.0279 42.4981 71.0279H44.8882C45.5087 71.0279 46.0199 70.9886 46.4175 70.9144C46.8151 70.84 47.2041 70.639 47.5886 70.3025C47.9731 69.9705 48.3096 69.4549 48.6067 68.747H49.1049L48.3183 71.762L38.6441 71.762ZM49.5767 71.762V71.4255C50.6255 71.4255 51.1498 71.0585 51.1498 70.3243V61.3537C51.1498 60.6195 50.6255 60.2525 49.5767 60.2525V59.938H54.5317V60.2525C53.5006 60.2525 52.985 60.6195 52.985 61.3537V70.3243C52.985 70.7919 53.5791 71.0279 54.7721 71.0279C55.7597 71.0279 56.5287 70.9842 57.0792 70.9012C57.6254 70.8138 58.1148 70.5997 58.5386 70.2589C58.9668 69.918 59.3251 69.3807 59.6222 68.6465H60.0636L59.1985 71.762L49.5767 71.762ZM71.2321 69.6602C71.503 70.2763 71.7391 70.722 71.9487 71.0016C72.1541 71.2814 72.4819 71.4211 72.9363 71.4211V71.762H68.3788V71.4211C68.842 71.395 69.1697 71.3425 69.3532 71.2551C69.5412 71.1721 69.6329 71.0279 69.6329 70.8224C69.6329 70.6302 69.4843 70.1626 69.1916 69.4243L68.5579 67.908H63.8388C63.83 67.9342 63.6727 68.3362 63.3625 69.114C63.0524 69.8917 62.8994 70.4073 62.8994 70.6607C62.8994 71.1677 63.3014 71.4211 64.101 71.4211V71.7619H60.5618V71.4211C61.0554 71.373 61.4444 71.1196 61.7283 70.6739C62.0124 70.2238 62.4013 69.433 62.8994 68.2969L66.5174 59.6758H66.8801L71.2321 69.6602ZM64.1534 67.1739H68.3221L66.229 62.2451L64.1534 67.1739ZM81.0374 61.3537C81.0374 60.6195 80.4693 60.2525 79.3289 60.2525V59.938H84.1048C87.3732 59.938 89.0074 60.943 89.0074 62.953C89.0074 64.3031 88.2209 65.1596 86.6479 65.5222V65.5442C87.4912 65.7014 88.199 66.0292 88.7627 66.5317C89.3264 67.0342 89.6105 67.694 89.6105 68.5111C89.6105 69.5598 89.1953 70.3638 88.365 70.9231C87.5349 71.4824 86.4032 71.762 84.9699 71.762H79.3289V71.4212C80.4693 71.4212 81.0374 71.0542 81.0374 70.3201V61.3537ZM82.8726 70.1584C82.8726 70.4948 82.9644 70.7396 83.1522 70.8837C83.34 71.0324 83.7378 71.1066 84.3451 71.1066C85.3676 71.1066 86.1628 70.9099 86.7352 70.5167C87.3077 70.1234 87.5916 69.4373 87.5916 68.4586C87.5916 66.7632 86.3158 65.9156 83.7683 65.9156H82.8726V70.1584ZM84.3451 65.2076C85.2583 65.2076 85.9618 65.0198 86.4556 64.6396C86.9494 64.2639 87.1984 63.7176 87.1984 63.0054C87.1984 62.3456 87.0106 61.8168 86.6304 61.4236C86.2502 61.0259 85.7302 60.7769 85.0748 60.6678C84.3757 60.6371 83.965 60.6195 83.847 60.6195C83.4843 60.6195 83.231 60.6544 83.0867 60.7288C82.9426 60.8033 82.8726 60.9517 82.8726 61.1702V65.2076L84.3451 65.2076ZM94.8278 70.32C94.8278 71.0541 95.4045 71.4211 96.5624 71.4211V71.762H91.2578V71.4211C92.4157 71.4211 92.9926 71.0541 92.9926 70.32V61.3537C92.9926 60.6195 92.4157 60.2525 91.2578 60.2525V59.938H96.5624V60.2525C95.4045 60.2525 94.8278 60.6195 94.8278 61.3537V70.32ZM107.805 69.6602C108.076 70.2763 108.312 70.722 108.522 71.0016C108.727 71.2814 109.055 71.4211 109.509 71.4211V71.762H104.952V71.4211C105.415 71.395 105.743 71.3425 105.926 71.2551C106.114 71.1721 106.206 71.0279 106.206 70.8224C106.206 70.6302 106.057 70.1626 105.765 69.4243L105.131 67.908H100.412C100.403 67.9342 100.246 68.3362 99.9357 69.1139C99.6255 69.8917 99.4725 70.4073 99.4725 70.6607C99.4725 71.1677 99.8746 71.4211 100.674 71.4211V71.7619H97.1349V71.4211C97.6285 71.373 98.0175 71.1196 98.3015 70.6739C98.5855 70.2238 98.9744 69.433 99.4725 68.2969L103.091 59.6758H103.453L107.805 69.6602ZM100.727 67.1739H104.895L102.802 62.2451L100.727 67.1739ZM120.73 71.9979H120.442L112.498 62.1665V70.32C112.498 71.0541 113.075 71.4211 114.228 71.4211V71.762H109.986V71.4211C111.152 71.4211 111.738 71.0541 111.738 70.32V61.2488L111.585 61.0653C111.27 60.7201 111.03 60.5017 110.864 60.4099C110.698 60.3181 110.405 60.2658 109.985 60.2526V59.938H113.049L119.918 68.5111V61.3538C119.918 60.6196 119.341 60.2526 118.187 60.2526V59.938H122.461V60.2526C121.307 60.2526 120.73 60.6196 120.73 61.3538L120.73 71.9979ZM133.839 63.7132H133.441C133.266 63.0491 133 62.468 132.646 61.9655C132.292 61.463 131.855 61.0741 131.331 60.7987C130.802 60.5235 130.208 60.3837 129.535 60.3837C128.132 60.3837 127.084 60.8993 126.389 61.9261C125.694 62.953 125.345 64.3206 125.345 66.0204C125.345 66.8944 125.498 67.7289 125.803 68.5241C126.114 69.3194 126.59 69.9617 127.232 70.4643C127.879 70.9624 128.661 71.2115 129.587 71.2115C130.435 71.2115 131.187 71.0672 131.838 70.7833C132.489 70.4948 133.131 70.0447 133.76 69.4243L134.075 69.7695C133.529 70.4424 132.825 70.9798 131.969 71.3861C131.112 71.7925 130.26 71.9979 129.408 71.9979C128.237 71.9979 127.184 71.7576 126.249 71.2725C125.314 70.7876 124.58 70.0797 124.047 69.1534C123.514 68.2227 123.247 67.1259 123.247 65.8587C123.247 64.9761 123.396 64.1547 123.697 63.403C123.994 62.6471 124.423 61.9873 124.973 61.428C125.528 60.8643 126.179 60.4317 126.926 60.1303C127.674 59.8287 128.491 59.6758 129.382 59.6758C129.867 59.6758 130.265 59.7152 130.575 59.7894C130.885 59.8637 131.257 59.9729 131.689 60.1171C132.126 60.2614 132.419 60.3312 132.576 60.3312C132.886 60.3312 133.131 60.1127 133.315 59.6758H133.677L133.839 63.7132Z" fill="#5B0D1F"/>
<path fill-rule="evenodd" clip-rule="evenodd" d="M73.6329 0C80.5858 0 86.8807 2.81851 91.4372 7.37498C95.9937 11.9315 98.8122 18.2264 98.8122 25.1793C98.8122 32.1317 95.9937 38.4271 91.4372 42.9836C86.8807 47.5401 80.5858 50.3586 73.6329 50.3586C66.6805 50.3586 60.3851 47.5401 55.8286 42.9836C51.2721 38.4271 48.4536 32.1317 48.4536 25.1793C48.4536 18.2264 51.2721 11.9315 55.8286 7.37498C60.3851 2.81851 66.6805 0 73.6329 0ZM90.2243 8.5879C85.9787 4.34225 80.1124 1.7159 73.6329 1.7159C67.1536 1.7159 61.2872 4.34225 57.0415 8.5879C52.7958 12.8335 50.1695 18.6998 50.1695 25.1793C50.1695 31.6586 52.7958 37.525 57.0415 41.7707C61.2872 46.0164 67.1536 48.6427 73.6329 48.6427C80.1124 48.6427 85.9787 46.0164 90.2243 41.7707C94.47 37.525 97.0963 31.6586 97.0963 25.1793C97.0963 18.6998 94.47 12.8335 90.2243 8.5879Z" fill="#5B0D1F"/>
<path fill-rule="evenodd" clip-rule="evenodd" d="M64.1034 20.0603L60.4633 28.339H67.8387L64.1034 20.0603ZM65.5149 15.7031H66.0051L73.4713 31.9563C73.712 32.4601 73.9797 32.8777 74.2747 33.209C74.5743 33.5359 74.9055 33.7719 75.2778 33.9216C75.6544 34.0669 76.0902 34.1394 76.5986 34.1394H77.0888V34.6569H66.3092V34.1394H67.7208C68.4198 34.1394 68.9326 34.0441 69.2549 33.8535C69.5771 33.6629 69.7405 33.3679 69.7405 32.9685C69.7405 32.7189 69.6769 32.4193 69.5499 32.0653C69.4183 31.7067 69.1368 31.0668 68.7057 30.1318C68.6784 30.0819 68.6376 29.9911 68.5831 29.8685C68.5286 29.7415 68.4741 29.6234 68.4107 29.5099L68.1066 28.8292H60.2364L59.6373 30.2136C59.4421 30.6855 59.3423 31.1575 59.3423 31.6387C59.3423 32.0471 59.4558 32.451 59.6827 32.8505C59.9095 33.2499 60.2047 33.5494 60.5677 33.7537C60.8082 33.8945 61.0216 33.9897 61.2122 34.0397C61.4028 34.0895 61.6752 34.1214 62.0292 34.1394V34.6569H54.463V34.1394C55.0122 34.076 55.448 33.9807 55.7749 33.8444C56.0971 33.7128 56.4602 33.4904 56.8596 33.1818C57.7991 32.4556 58.7159 31.0849 59.61 29.0697L65.5149 15.7031Z" fill="#5B0D1F"/>
<path fill-rule="evenodd" clip-rule="evenodd" d="M76.7541 24.3143H80.5144C83.2123 24.3143 84.6427 23.0531 84.6427 20.1708C84.6427 18.8773 84.3571 17.9149 83.7828 17.2932C83.2047 16.6667 82.3168 16.5988 81.1145 16.5988H73.6451L73.3282 15.8906H82.9992C83.8591 15.8906 84.6929 15.995 85.4933 16.2039C86.2975 16.4125 86.9275 16.6851 87.3834 17.0344C87.9468 17.4384 88.3877 17.9333 88.6987 18.5142C89.0103 19.0952 89.1659 19.7215 89.1659 20.3841C89.1659 21.469 88.6768 22.404 87.6985 23.1938C87.3092 23.5117 86.8869 23.7794 86.4383 23.9927C85.9898 24.2015 85.3562 24.4467 84.5408 24.7234V24.7734C85.5823 25.0141 86.4383 25.2999 87.113 25.6404C88.951 26.6298 89.8701 27.9961 89.8701 29.73C89.8701 30.6877 89.5922 31.5228 89.0398 32.2401C88.4841 32.9527 87.6945 33.5023 86.6682 33.8876C85.6418 34.2732 84.4256 34.4642 83.0288 34.4642H80.4565L80.2024 33.8391H80.6433C82.0849 33.8391 83.2565 33.6062 84.0237 32.8257C84.7906 32.0403 85.1762 30.9237 85.1762 29.4804C85.1762 28.2504 84.8649 27.2698 84.2423 26.5437C83.7718 25.9672 83.2479 25.6689 82.5659 25.4466C81.888 25.2242 81.8698 25.1153 80.5633 25.1153H77.1102L76.7541 24.3143Z" fill="#5B0D1F"/>
<path fill-rule="evenodd" clip-rule="evenodd" d="M78.4951 35.1727L69.8478 15.1875H70.8719L79.5192 35.1727H78.4951Z" fill="#5B0D1F"/>
</g>
<defs>
<clipPath id="clip0">
<rect width="147.262" height="72" fill="white"/>
</clipPath>
</defs>
</svg>
